# xmcd CD database file
#
# Track frame offsets:
#	150
#	12870
#	28963
#	43844
#	57904
#	71285
#	85676
#	99506
#	113746
#	128150
#	142837
#	157397
#	171605
#	186248
#	201494
#	215627
#	228870
#	240567
#	253857
#	266625
#	279283
#	290996
#	304796
#	317388
#
# Disc length: 4415 seconds
#
# Revision: 0
# Processed by: cddbd v1.5.1PL0 Copyright (c) Steve Scherf et al.
# Submitted via: CDex 1.51
#
DISCID=69113d18
DTITLE=Various Artist - Texas Blues: Early Masters From the Lone Star State #D
DYEAR=2004
DGENRE=Blues
TTITLE0=Coley Jones - Army Mule In No Man's Land
TTITLE1=Coley Jones - Traveling Man
TTITLE2=Coley Jones - Drunkard's Special
TTITLE3=Coley Jones - Elder's He's My Man, The
TTITLE4=Little Hat Jones - New Two Sixteen Blues
TTITLE5=Little Hat Jones - Two String Blues
TTITLE6=Little Hat Jones - Rolled From Side To Side Blues
TTITLE7=Little Hat Jones - Hurry Blues
TTITLE8=Little Hat Jones - Little Hat Blues
TTITLE9=Little Hat Jones - Corpus Blues
TTITLE10=Little Hat Jones - Kentucky Blues
TTITLE11=Little Hat Jones - Bye Bye Baby Blues
TTITLE12=Little Hat Jones - Cross The Water Blues
TTITLE13=Little Hat Jones - Cherry Street Blues
TTITLE14=Jesse "Babyface" Thomas - Down In Texas Blues
TTITLE15=Jesse "Babyface" Thomas - My Heart's A Rolling Stone
TTITLE16=Jesse "Babyface" Thomas - Blue Goose Blues
TTITLE17=Jesse "Babyface" Thomas - No Good Woman Blues
TTITLE18=Black Ace - Trifling Woman
TTITLE19=Black Ace - Black Ace
TTITLE20=Black Ace - You Gonna Need My Help Some Day
TTITLE21=Black Ace - Whiskey And Women
TTITLE22=Black Ace - Christmas Time Blues
TTITLE23=Black Ace - Lowing Heifer
EXTD=YEAR: 2004
EXTT0=
EXTT1=
EXTT2=
EXTT3=
EXTT4=
EXTT5=
EXTT6=
EXTT7=
EXTT8=
EXTT9=
EXTT10=
EXTT11=
EXTT12=
EXTT13=
EXTT14=
EXTT15=
EXTT16=
EXTT17=
EXTT18=
EXTT19=
EXTT20=
EXTT21=
EXTT22=
EXTT23=
PLAYORDER=
